<svg width="120" height="80" viewBox="0 0 120 80" fill="none" xmlns="http://www.w3.org/2000/svg">
<g opacity="0.5">
<g clip-path="url(#clip0_517_972)">
<path d="M107.218 48.6446C103.942 48.6567 100.666 48.6688 97.3889 48.6795C96.7551 48.6822 96.12 48.6795 95.4863 48.6795C95.4823 48.5978 95.4796 48.5174 95.4756 48.4356C96.1254 48.4356 96.7752 48.4356 97.4532 48.4356C97.4532 38.9655 97.4532 29.6254 97.4532 20.1982C96.8007 20.1982 96.1455 20.1982 95.4903 20.1982C95.4903 20.1366 95.4903 20.0749 95.4903 20.0146C99.2955 20.0146 103.102 20.0146 106.922 20.0146C106.922 22.5175 106.922 25.0498 106.922 27.5835C106.864 27.5888 106.807 27.5929 106.749 27.5982C106.69 26.9189 106.655 26.2369 106.563 25.563C106.473 24.9051 106.382 24.2392 106.194 23.6055C105.596 21.5863 104.386 20.627 102.285 20.4608C101.865 20.4273 101.442 20.4555 100.973 20.4555C100.973 24.8663 100.973 29.2583 100.973 33.6477C102.399 33.7642 103.497 33.1104 103.843 31.7826C104.069 30.913 104.072 29.9858 104.179 29.0841C104.205 28.8738 104.242 28.6661 104.274 28.4557C104.336 28.4638 104.398 28.4718 104.461 28.4798C104.461 32.0305 104.461 35.5824 104.461 39.133C104.407 39.1478 104.353 39.1612 104.3 39.1759C104.26 38.9615 104.209 38.7485 104.179 38.5328C104.049 37.5922 104.035 36.6195 103.771 35.7191C103.41 34.4931 102.299 33.9317 100.958 34.1166C100.958 38.7552 100.958 43.3978 100.958 48.0377C104.249 48.4169 105.992 46.8144 106.533 44.337C106.745 43.3656 106.78 42.3581 106.925 41.3706C106.949 41.2018 107.118 41.0544 107.218 40.8976C107.218 43.4782 107.218 46.0614 107.218 48.6446ZM105.688 48.1167C105.972 48.1342 106.257 48.1516 106.541 48.1703C106.677 47.9399 106.976 47.6304 106.911 47.4977C106.781 47.2324 106.47 46.9323 106.2 46.8948C105.961 46.8613 105.593 47.1078 105.433 47.3369C105.254 47.5955 105.24 47.9734 105.688 48.1167Z" fill="white"/>
<path d="M107.217 59.9999C106.048 58.8141 104.869 57.6364 103.71 56.4399C102.178 54.8575 100.663 53.2591 99.1381 51.6687C99.0216 51.5467 98.8862 51.4449 98.6638 51.248C98.6638 54.1286 98.6638 56.8928 98.6638 59.6931C98.4092 59.6931 98.2217 59.6931 97.9912 59.6931C97.9912 56.33 97.9912 52.9817 97.9912 49.4727C100.806 52.4123 103.542 55.2715 106.403 58.2581C106.403 55.2809 106.403 52.4565 106.403 49.5798C106.738 49.5798 106.978 49.5798 107.217 49.5798C107.217 53.0527 107.217 56.5256 107.217 59.9999Z" fill="white"/>
<path d="M23.6309 48.6096C19.7614 48.6096 15.8866 48.6096 12.0117 48.6096C12.0077 48.5493 12.005 48.4903 12.001 48.43C12.6374 48.43 13.2725 48.43 13.9464 48.43C13.9464 38.9653 13.9464 29.6091 13.9464 20.1805C13.2846 20.1805 12.6481 20.1805 12.0117 20.1805C12.0117 20.1243 12.013 20.068 12.013 20.0117C15.8008 20.0117 19.5899 20.0117 23.4072 20.0117C23.4072 22.4998 23.4072 25.0415 23.4072 27.5832C23.3536 27.5859 23.3013 27.5899 23.2477 27.5926C23.1861 26.8838 23.1512 26.1724 23.0561 25.4676C22.9704 24.8325 22.8712 24.1907 22.685 23.5797C22.0673 21.5526 20.8681 20.6133 18.7619 20.4579C18.3639 20.4284 17.9633 20.4539 17.5131 20.4539C17.5131 24.858 17.5131 29.2299 17.5131 33.6005C18.9307 33.8899 20.2116 32.9132 20.4997 31.2732C20.6176 30.5979 20.6189 29.9039 20.6832 29.2192C20.706 28.9686 20.7542 28.7208 20.7904 28.4729C20.844 28.4783 20.8976 28.4836 20.9512 28.4876C20.9512 32.0382 20.9512 35.5889 20.9512 39.1395C20.8976 39.1448 20.844 39.1502 20.7904 39.1556C20.7529 38.8018 20.7221 38.4481 20.6779 38.0957C20.5841 37.3709 20.5613 36.6272 20.3684 35.9292C20.0039 34.6108 18.9709 33.977 17.5239 34.1003C17.5239 38.7496 17.5239 43.4029 17.5239 48.0562C21.1468 48.3858 22.7185 46.5087 23.1847 43.6749C23.3335 42.7691 23.3844 41.846 23.6322 40.9376C23.6309 43.4793 23.6309 46.0223 23.6309 48.6096Z" fill="white"/>
<path d="M79.4516 48.5976C75.5339 48.5976 71.6631 48.5976 67.7909 48.5976C67.7882 48.536 67.7869 48.4743 67.7842 48.4141C68.4461 48.4141 69.1093 48.4141 69.8087 48.4141C69.8087 38.9721 69.8087 29.632 69.8087 20.1954C69.1321 20.1954 68.4608 20.1954 67.7895 20.1954C67.7895 20.1324 67.7895 20.0708 67.7895 20.0078C70.2843 20.0078 72.7792 20.0078 75.2753 20.0078C75.282 20.044 75.2887 20.0788 75.2954 20.115C74.6469 20.115 73.9984 20.115 73.3084 20.115C73.3084 29.5958 73.3084 38.9547 73.3084 48.3095C75.7724 48.6847 78.0193 47.3167 78.6812 44.9264C78.9867 43.8251 79.0443 42.654 79.2131 41.5151C79.2426 41.3182 79.2614 41.1199 79.2841 40.9229C79.3391 40.9296 79.3954 40.9363 79.4503 40.943C79.4516 43.4941 79.4516 46.0479 79.4516 48.5976Z" fill="white"/>
<path d="M51.7586 40.9446C51.7586 43.4997 51.7586 46.0548 51.7586 48.6246C47.861 48.6246 43.9767 48.6246 40.0925 48.6246C40.0885 48.5684 40.0845 48.5134 40.0791 48.4572C40.7303 48.4572 41.3814 48.4572 42.0902 48.4572C42.0902 38.9897 42.0902 29.6336 42.0902 20.1809C41.427 20.1809 40.7557 20.1809 40.0858 20.1809C40.0885 20.1206 40.0898 20.0603 40.0925 20C42.602 20 45.1116 20 47.6211 20C47.6238 20.0442 47.6265 20.0898 47.6292 20.134C46.9713 20.134 46.3121 20.134 45.6114 20.134C45.6114 29.596 45.6114 38.9549 45.6114 48.3098C48.2777 48.705 50.4737 47.2031 51.1329 44.4885C51.3459 43.6096 51.3982 42.6904 51.5148 41.7887C51.5509 41.506 51.5576 41.2206 51.5777 40.9366C51.6367 40.9392 51.697 40.9419 51.7586 40.9446Z" fill="white"/>
<path d="M84.5684 54.6536C84.5764 51.7354 86.9466 49.4376 89.9372 49.4483C92.7777 49.4577 95.1733 51.8627 95.1599 54.6938C95.1479 57.5544 92.7335 59.9152 89.8327 59.9018C86.9064 59.8884 84.559 57.549 84.5684 54.6536ZM89.8675 59.2359C92.3556 59.2346 94.3828 57.1886 94.3842 54.6777C94.3842 52.1843 92.3342 50.1102 89.8662 50.1088C87.3968 50.1061 85.312 52.1709 85.2865 54.6429C85.2598 57.1297 87.3606 59.2373 89.8675 59.2359Z" fill="white"/>
<path d="M47.5716 49.4482C50.4938 49.4469 52.8734 51.7849 52.876 54.6603C52.8787 57.5423 50.5085 59.8964 47.601 59.9018C44.6654 59.9058 42.3207 57.5919 42.3193 54.6884C42.3193 51.7702 44.644 49.4496 47.5716 49.4482ZM52.1217 54.7634C52.1753 52.3062 50.1682 50.1677 47.7551 50.1115C45.1973 50.0525 43.1072 52.0462 43.0241 54.6228C42.9477 57.005 45.0285 59.1756 47.4483 59.2359C49.9766 59.2975 52.0668 57.2984 52.1217 54.7634Z" fill="white"/>
<path d="M14.0371 49.5273C15.1827 49.585 16.2881 49.5287 17.3492 49.7189C19.8427 50.1665 21.5376 52.5849 21.2603 55.1279C20.9655 57.8277 18.9624 59.7076 16.3551 59.7277C15.5994 59.733 14.8437 59.729 14.0371 59.729C14.0371 56.3499 14.0371 53.0069 14.0371 49.5273ZM14.7446 59.0055C17.0478 59.3391 18.9316 58.6625 19.8387 57.1123C20.8208 55.4334 20.8288 53.6996 19.7395 52.0784C18.5471 50.3018 16.7195 50.0941 14.7432 50.2777C14.7446 53.1999 14.7446 56.0832 14.7446 59.0055Z" fill="white"/>
<path d="M55.9229 49.6561C56.8246 49.6561 57.6874 49.5423 58.5074 49.6816C59.9196 49.9201 60.6391 51.0228 60.5293 52.5194C60.4248 53.9383 59.5833 54.7891 58.155 54.9204C58.0465 54.9298 57.938 54.9512 57.7049 54.9847C58.7942 56.5671 59.8446 58.0919 60.9058 59.6314C60.1313 59.7921 60.1327 59.7921 59.7481 59.2294C58.896 57.9807 58.0452 56.7306 57.1917 55.4818C57.0698 55.3036 56.9371 55.1321 56.6531 54.9901C56.6531 56.5417 56.6531 58.0945 56.6531 59.6836C56.3583 59.7037 56.168 59.7171 55.9242 59.7332C55.9228 56.3501 55.9229 53.0058 55.9229 49.6561ZM56.6263 54.2867C57.7183 54.28 58.7995 54.4528 59.5163 53.4198C59.9732 52.7592 59.9558 51.6659 59.4587 51.0228C58.7218 50.0675 57.6714 50.2323 56.6263 50.2618C56.6263 51.6043 56.6263 52.8892 56.6263 54.2867Z" fill="white"/>
<path d="M71.5869 59.6609C70.9693 59.8847 70.7267 59.614 70.5499 59.1183C70.2832 58.3666 69.9349 57.6445 69.6616 56.8941C69.5356 56.5485 69.3641 56.4118 68.9863 56.4198C67.8729 56.4439 66.7581 56.4064 65.646 56.448C65.4316 56.456 65.1315 56.6744 65.0364 56.874C64.6947 57.5935 64.3879 58.3345 64.1373 59.0902C63.9578 59.6315 63.6871 59.8726 63.0762 59.6663C64.4844 56.2296 65.8912 52.7942 67.361 49.2061C68.8067 52.7821 70.1881 56.2014 71.5869 59.6609ZM65.4892 55.7084C66.7782 55.7084 67.9305 55.7084 69.1779 55.7084C68.5749 54.1903 67.9948 52.7299 67.3436 51.0899C66.6817 52.7379 66.1002 54.1876 65.4892 55.7084Z" fill="white"/>
<path d="M40.0775 51.5712C37.2826 49.623 35.0195 49.6766 33.2751 51.7185C31.7007 53.5608 31.7503 56.0784 33.4318 57.8269C34.903 59.357 37.4581 60.0444 40.0601 57.8202C40.2249 58.3307 40.1472 58.6724 39.6742 58.9899C37.7716 60.2655 35.3451 60.2172 33.5001 58.8238C31.6913 57.4571 30.9517 55.1512 31.6511 53.0611C32.3706 50.9146 34.4045 49.4595 36.6689 49.4435C37.7528 49.4368 38.7175 49.7503 39.6193 50.3398C40.0976 50.6534 40.2503 51.0312 40.0775 51.5712Z" fill="white"/>
<path d="M24.1807 49.6055C25.8166 49.6055 27.395 49.6055 28.968 49.6055C29.0685 50.2205 29.0685 50.2298 28.5231 50.2325C27.3213 50.2392 26.1208 50.2339 24.872 50.2339C24.872 51.4464 24.872 52.6121 24.872 53.8448C26.2172 53.8448 27.5437 53.8448 28.8996 53.8448C28.8996 54.0806 28.8996 54.2494 28.8996 54.4866C27.5772 54.4866 26.2481 54.4866 24.8734 54.4866C24.8734 56.0314 24.8734 57.5079 24.8734 59.0769C26.1034 59.0769 27.3199 59.0916 28.5365 59.0689C28.9934 59.0608 29.1555 59.2109 29.0055 59.6906C27.4231 59.6906 25.826 59.6906 24.182 59.6906C24.1807 56.3476 24.1807 53.0047 24.1807 49.6055Z" fill="white"/>
<path d="M74.8692 50.2336C74.0934 50.2336 73.4288 50.2403 72.7642 50.231C72.2698 50.2243 72.2698 50.2162 72.3181 49.6133C74.2434 49.6133 76.1715 49.6133 78.1371 49.6133C78.1371 49.8116 78.1371 49.9938 78.1371 50.243C77.2903 50.243 76.4756 50.243 75.594 50.243C75.594 53.4319 75.594 56.5551 75.594 59.7024C75.3261 59.7024 75.1304 59.7024 74.8692 59.7024C74.8692 56.5752 74.8692 53.452 74.8692 50.2336Z" fill="white"/>
<path d="M81.4818 49.5762C81.4818 53.0035 81.4818 56.3317 81.4818 59.6947C81.2647 59.6947 81.0785 59.6947 80.8574 59.6947C80.8574 56.3357 80.8574 53.0075 80.8574 49.6271C81.0477 49.611 81.2353 49.5963 81.4818 49.5762Z" fill="white"/>
<path d="M106.541 48.1695C106.257 48.1521 105.972 48.1347 105.688 48.1173C105.641 48.0168 105.543 47.9056 105.559 47.8158C105.604 47.5733 105.637 47.2839 105.79 47.1218C105.9 47.0052 106.196 47.0601 106.408 47.04C106.42 47.245 106.422 47.4514 106.446 47.6537C106.465 47.8265 106.509 47.998 106.541 48.1695Z" fill="white"/>
</g>
</g>
<defs>
<clipPath id="clip0_517_972">
<rect width="95.2181" height="40" fill="white" transform="translate(12 20)"/>
</clipPath>
</defs>
</svg>
