<svg width="125" height="80" viewBox="0 0 125 80" fill="none" xmlns="http://www.w3.org/2000/svg">
<g opacity="0.5">
<g clip-path="url(#clip0_517_1024)">
<path d="M124.961 52.5279C124.603 53.1539 124.255 53.7748 123.718 54.2896C123.172 54.8121 122.528 55.1329 121.853 55.3877C121.228 55.6231 120.56 55.7163 119.897 55.8366C119.379 55.931 118.867 56.0099 118.357 55.9737C117.677 55.9258 116.999 55.7978 116.329 55.6606C115.77 55.5455 115.196 55.4317 114.682 55.1976C114.166 54.9635 113.632 54.6582 113.257 54.2469C112.808 53.7541 112.45 53.1449 112.181 52.5292C111.932 51.9614 111.852 51.3198 111.675 50.6239C113.262 50.5438 114.721 50.47 116.17 50.3976C116.342 51.2034 116.48 51.9678 117.182 52.4037C117.516 52.6107 117.915 52.806 118.294 52.828C118.817 52.859 119.37 52.7879 119.874 52.6404C120.412 52.4839 120.761 51.8657 120.717 51.2888C120.688 50.8969 120.169 50.2126 119.75 50.1092C118.932 49.9074 118.114 49.7004 117.309 49.4534C116.317 49.1494 115.307 48.8791 114.403 48.3462C113.395 47.7512 112.646 46.9324 112.382 45.7619C112.293 45.3674 112.307 44.9509 112.272 44.5227C110.821 44.5227 109.367 44.5227 107.868 44.5227C107.858 44.6378 107.836 44.7711 107.835 44.903C107.833 48.297 107.833 51.6898 107.833 55.0838C107.833 55.6141 107.784 55.6632 107.262 55.6632C106.033 55.6632 104.804 55.6632 103.574 55.6632C103.458 55.6632 103.34 55.6632 103.183 55.6632C103.183 51.9368 103.183 48.2453 103.183 44.5279C101.719 44.5279 100.295 44.5279 98.9202 44.5279C99.0508 45.0401 99.2384 45.5433 99.2992 46.0606C99.4078 46.9958 99.501 47.94 99.4919 48.8791C99.4803 50.0833 99.219 51.2526 98.6537 52.3313C98.2178 53.1643 97.6047 53.8395 96.8701 54.4383C96.2557 54.9389 95.5533 55.2364 94.8368 55.4925C94.3194 55.6775 93.7166 55.627 93.2005 55.8146C92.6444 56.0176 92.0933 56.0176 91.5423 55.975C90.9629 55.9297 90.3886 55.7939 89.8208 55.6632C89.262 55.5352 88.6967 55.4071 88.1638 55.2028C86.4953 54.5625 85.4489 53.2833 84.7465 51.7001C84.5486 51.2539 84.4258 50.7546 84.3701 50.267C84.2628 49.315 84.18 48.3552 84.1787 47.3981C84.1774 46.5677 84.3921 45.7632 84.6612 44.9651C84.9574 44.0881 85.414 43.3108 86.0232 42.655C86.7048 41.9216 87.5559 41.3693 88.5234 41.0498C89.6927 40.6631 90.8982 40.482 92.1309 40.5182C92.5512 40.5311 92.9897 40.4923 93.3881 40.5958C94.2741 40.8273 95.1769 40.9787 96.0099 41.4379C96.6864 41.8104 97.2762 42.2514 97.7949 42.8024C98.0161 43.0366 98.1881 43.3172 98.4248 43.6341C98.4248 42.6731 98.4248 41.7754 98.4248 40.8597C103.08 40.8597 107.739 40.8597 112.441 40.8597C112.441 41.7897 112.441 42.7041 112.441 43.5708C112.767 43.0999 113.076 42.5981 113.439 42.1415C113.863 41.6086 114.458 41.2826 115.087 41.0576C115.548 40.8933 116.036 40.7834 116.523 40.72C117.268 40.6204 118.022 40.5324 118.772 40.5311C119.468 40.5298 120.177 40.5893 120.858 40.7277C121.832 40.9269 122.757 41.2749 123.48 42.016C123.871 42.4157 124.167 42.8671 124.346 43.3948C124.463 43.7441 124.581 44.0946 124.673 44.4503C124.714 44.6107 124.694 44.7879 124.704 45.022C124.388 45.022 124.11 45.0091 123.835 45.0246C122.801 45.0841 121.769 45.1526 120.737 45.2173C120.62 45.2251 120.504 45.2186 120.376 45.2186C120.196 44.2278 119.714 43.5048 118.687 43.4078C117.801 43.3237 116.838 43.2487 116.56 44.4995C116.791 45.2691 117.507 45.3764 118.182 45.5407C119.093 45.7619 120.02 45.9287 120.91 46.2146C121.686 46.4629 122.44 46.8057 123.165 47.1795C123.665 47.4382 124.157 47.7499 124.409 48.3229C124.538 48.6165 124.774 48.8649 124.96 49.1326C124.961 50.2644 124.961 51.3961 124.961 52.5279ZM94.9131 48.1586C94.8523 47.6024 94.807 47.0644 94.7307 46.5315C94.6893 46.2482 94.6479 45.9404 94.5108 45.6972C93.7968 44.4296 92.5473 43.7143 90.9279 44.1696C89.7121 44.5111 89.0615 45.595 88.949 46.6362C88.8571 47.4873 88.8364 48.3539 88.8882 49.2076C88.9231 49.7754 89.0524 50.3743 89.3021 50.8788C89.5181 51.3134 89.9074 51.7208 90.3213 51.9847C90.8995 52.3533 91.576 52.4322 92.2887 52.3429C93.3752 52.2058 94.4604 51.3651 94.6634 50.3161C94.7993 49.6047 94.8342 48.8713 94.9131 48.1586Z" fill="white"/>
<path d="M28.2714 53.8361C29.8895 49.5211 31.5089 45.2062 33.1374 40.8654C34.8202 40.8654 36.5236 40.8654 38.2763 40.8654C39.9112 45.2295 41.5552 49.6207 43.2004 54.0107C43.2224 54.0068 43.2444 54.0042 43.2664 54.0004C43.2664 49.6233 43.2664 45.2463 43.2664 40.8421C43.3841 40.8421 43.5018 40.8421 43.6208 40.8421C46.2646 40.8421 48.9071 40.8356 51.551 40.8447C52.9738 40.8485 54.1961 41.3 55.1054 42.4615C55.5464 43.0254 55.7211 43.6812 55.8362 44.3551C55.9927 45.2773 55.9215 46.1918 55.6538 47.0959C55.4249 47.8668 54.9566 48.4592 54.3836 48.9908C53.8688 49.4681 53.2053 49.6518 52.578 49.9053C52.415 49.9713 52.2197 49.97 52.0386 49.9803C51.1565 50.0282 50.273 50.0773 49.3909 50.1097C48.9033 50.1278 48.4143 50.1123 47.8892 50.1123C47.8892 51.9619 47.8892 53.7921 47.8892 55.6418C44.9091 55.6418 41.9652 55.6418 38.9683 55.6418C38.7083 54.8101 38.4418 53.959 38.1948 53.1687C37.5235 53.1687 36.9311 53.1739 36.3387 53.1674C35.3505 53.157 34.3636 53.1299 33.3754 53.1338C33.2706 53.1338 33.1063 53.267 33.0701 53.373C32.8334 54.0637 32.6329 54.7674 32.3949 55.4581C32.3626 55.5512 32.1893 55.6508 32.0793 55.6521C29.4252 55.6625 26.771 55.6715 24.1168 55.6392C23.906 55.6366 23.6525 55.365 23.4999 55.158C23.1455 54.6756 22.8454 54.153 22.5143 53.6524C22.0939 53.0173 21.6735 52.381 21.2402 51.7562C20.8069 51.1315 20.3413 50.5287 19.9144 49.9001C19.4501 49.2172 19.0129 48.5161 18.5653 47.8215C18.5317 47.7698 18.5149 47.7077 18.4903 47.6495C18.458 47.6715 18.4257 47.6922 18.3933 47.7142C18.3881 47.8267 18.3778 47.9405 18.3778 48.0531C18.3765 50.4356 18.3713 52.8182 18.383 55.1994C18.3843 55.5525 18.2769 55.6728 17.916 55.6676C16.6459 55.6495 15.3757 55.6599 14.0654 55.6599C14.0654 50.7137 14.0654 45.7921 14.0654 40.8408C15.0459 40.8408 16.0664 40.8408 17.0869 40.8408C18.4192 40.8408 18.4166 40.8434 19.1384 41.9169C19.7618 42.8443 20.3904 43.7679 21.019 44.6914C21.8753 45.9486 22.7354 47.2046 23.5917 48.4631C23.646 48.5433 23.6758 48.6429 23.7754 48.7218C23.7754 46.1103 23.7754 43.4988 23.7754 40.8654C25.2732 40.8654 26.7348 40.8654 28.2067 40.8654C28.2067 45.1855 28.2067 49.503 28.2067 53.8206C28.2287 53.8258 28.2507 53.8309 28.2714 53.8361ZM47.8957 47.0015C47.981 47.0144 48.0806 47.0455 48.1776 47.0416C48.7118 47.0248 49.2473 47.0235 49.7776 46.9705C50.092 46.9394 50.4166 46.8683 50.7012 46.7363C51.172 46.5177 51.4837 45.7869 51.397 45.2437C51.2949 44.6009 50.8189 43.9735 50.2627 43.9308C49.4827 43.8701 48.695 43.9153 47.8957 43.9153C47.8957 44.9126 47.8957 45.9409 47.8957 47.0015ZM37.204 49.8911C36.6931 48.1979 36.1873 46.5216 35.6622 44.7819C35.1151 46.532 34.5938 48.2005 34.0661 49.8911C35.0905 49.8911 36.124 49.8911 37.204 49.8911Z" fill="white"/>
<path d="M78.9419 49.6782C77.2798 49.6782 75.663 49.6782 74.0061 49.6782C74.0061 51.6714 74.0061 53.6452 74.0061 55.6397C72.4914 55.6397 71.0169 55.6397 69.5333 55.6397C69.3807 55.4121 69.2837 42.7026 69.4324 40.8672C70.9574 40.8672 72.485 40.8672 74.0048 40.8672C74.0048 42.5138 74.0048 44.1616 74.0048 45.8703C75.6319 45.8703 77.2682 45.8703 78.9315 45.8703C78.9315 44.2353 78.9315 42.5642 78.9315 40.8685C80.4837 40.8685 82.0099 40.8685 83.5504 40.8685C83.5504 45.781 83.5504 50.6987 83.5504 55.61C82.0009 55.61 80.4824 55.61 78.9419 55.61C78.9419 53.6038 78.9419 51.6494 78.9419 49.6782Z" fill="white"/>
<path d="M15.5056 31.6651C15.5056 32.1333 15.5587 32.608 15.4927 33.0659C15.406 33.6635 15.1926 34.243 15.0943 34.8392C14.9779 35.5532 14.5718 36.1262 14.1786 36.6721C13.7853 37.2179 13.2589 37.69 12.7183 38.1C12.2901 38.426 11.7702 38.6549 11.2592 38.8425C10.6759 39.0572 10.0667 39.237 9.45358 39.3275C8.82625 39.4207 8.18082 39.4077 7.54315 39.4038C6.65325 39.3987 5.79182 39.2344 4.93038 38.977C4.10645 38.7312 3.3653 38.3794 2.70435 37.8426C1.81833 37.1222 1.17678 36.2155 0.764169 35.1626C0.430458 34.3102 0.215745 33.4113 0.239027 32.4903C0.264896 31.4349 0.323101 30.3768 0.443392 29.3278C0.496424 28.8622 0.702083 28.3991 0.905155 27.9646C1.2311 27.2622 1.63854 26.5922 2.23741 26.0929C2.78842 25.6337 3.36789 25.181 4.00039 24.8525C4.94719 24.3597 5.99877 24.1838 7.06069 24.0583C8.2843 23.9135 9.4484 24.1437 10.6229 24.4244C11.4507 24.6223 12.2319 24.9392 12.8748 25.4617C13.4503 25.93 13.9147 26.543 14.392 27.1212C14.9417 27.7861 15.1474 28.6203 15.3297 29.43C15.4927 30.1544 15.4966 30.9136 15.5716 31.6586C15.5496 31.6612 15.5276 31.6638 15.5056 31.6651ZM4.8657 31.7608C4.8657 31.8591 4.85924 31.9574 4.867 32.0544C4.90839 32.5498 4.89028 33.0608 5.01704 33.5342C5.13862 33.9907 5.39602 34.415 5.62237 34.8392C5.88365 35.3282 6.34153 35.5985 6.84986 35.7447C7.40216 35.9038 7.95188 35.9283 8.55334 35.8507C9.58292 35.7188 10.4094 34.8069 10.6009 33.9907C10.7276 33.4514 10.7988 32.8978 10.8725 32.3481C11.0471 31.0443 10.8893 29.7831 10.1753 28.6617C9.85067 28.1521 9.32423 27.7835 8.71114 27.6735C8.05536 27.5558 7.37112 27.4601 6.7438 27.7977C6.36482 28.0021 5.91469 28.1922 5.67799 28.5194C5.11793 29.2942 4.85924 30.2035 4.867 31.1736C4.867 31.3702 4.8657 31.5655 4.8657 31.7608Z" fill="white"/>
<path d="M60.29 39.125C60.29 34.1905 60.29 29.2793 60.29 24.3486C64.3644 24.3486 68.4258 24.3486 72.5183 24.3486C72.5183 25.4209 72.5183 26.4777 72.5183 27.5745C69.9728 27.5745 67.4351 27.5745 64.8999 27.5745C64.8999 28.3622 64.8999 29.1085 64.8999 29.8756C67.2734 29.8756 69.5977 29.8756 71.9479 29.8756C71.9479 30.8793 71.9479 31.861 71.9479 32.8686C69.6171 32.8686 67.2941 32.8686 64.9115 32.8686C64.9115 33.8309 64.9115 34.7713 64.9115 35.7388C67.4829 35.7388 70.0892 35.7388 72.7201 35.7388C72.7201 36.877 72.7201 37.9894 72.7201 39.1263C68.5927 39.125 64.4562 39.125 60.29 39.125Z" fill="white"/>
<path d="M0 50.738C1.51981 50.4586 3.02409 50.4496 4.54131 50.4341C4.63185 50.7548 4.70946 51.0523 4.80259 51.346C5.06516 52.1815 5.91237 52.8852 6.8346 52.8554C7.38949 52.8373 7.9599 52.9201 8.45012 52.5657C9.40081 51.8789 9.38141 50.8506 8.38545 50.2452C7.74519 49.8559 7.01568 49.7278 6.29006 49.583C5.82441 49.4898 5.37559 49.3191 4.91641 49.1975C4.09766 48.9815 3.30606 48.684 2.61795 48.1925C2.1536 47.8601 1.69442 47.4734 1.35683 47.0194C0.594988 45.9911 0.507033 44.8063 0.898949 43.6215C1.19774 42.716 1.80695 42.0124 2.627 41.4963C3.17801 41.1497 3.76783 40.9712 4.40032 40.816C5.55408 40.5327 6.69879 40.468 7.86807 40.578C8.33889 40.6219 8.82522 40.609 9.27793 40.7254C9.90914 40.8884 10.561 41.0695 11.1211 41.3877C12.0511 41.9154 12.5788 42.8143 12.9345 43.8012C13.0574 44.1401 13.091 44.5114 13.1777 44.924C13.0626 44.9524 12.9203 45.0119 12.778 45.0171C12.3757 45.0313 11.9722 45.0042 11.5712 45.0287C10.7201 45.0805 9.87033 45.1542 9.02053 45.2176C8.93517 45.224 8.8485 45.2189 8.77995 45.2189C8.68165 44.9291 8.5924 44.6588 8.49927 44.3911C8.36605 44.0017 8.05821 43.7741 7.71156 43.6098C6.98335 43.2645 6.22926 43.2567 5.5114 43.6072C5.19968 43.7599 4.97203 44.0793 5.00437 44.4661C5.03282 44.805 5.18933 45.1038 5.54632 45.2111C6.09475 45.3767 6.65222 45.5164 7.20323 45.6742C7.71285 45.819 8.22118 45.973 8.72951 46.123C9.32449 46.2989 9.92595 46.4528 10.5106 46.6572C11.1405 46.8784 11.7381 47.1733 12.2063 47.6738C12.5258 48.0153 12.9449 48.2999 13.1583 48.697C13.4027 49.1548 13.5386 49.6994 13.5955 50.2207C13.6718 50.9126 13.6498 51.6176 13.417 52.2966C13.2359 52.827 12.9643 53.3042 12.6163 53.7414C11.8661 54.6882 10.8909 55.2716 9.72029 55.5316C9.26112 55.6337 8.7709 55.6428 8.33888 55.8084C7.61973 56.0839 6.8941 55.9907 6.17235 55.9584C5.70412 55.9377 5.24107 55.789 4.77801 55.6855C4.32013 55.5846 3.85707 55.4966 3.41213 55.3544C2.08116 54.9275 1.19256 54.0131 0.690703 52.7325C0.481164 52.1996 0.384155 51.6228 0.222474 51.0692C0.195311 50.9696 0.103476 50.8881 0 50.738Z" fill="white"/>
<path d="M68.6432 45.0235C68.2396 45.0235 67.9279 45.0093 67.6187 45.0261C66.5788 45.0843 65.5389 45.1542 64.4989 45.2175C64.3916 45.224 64.2829 45.2188 64.2467 45.2188C64.0488 44.814 63.8897 44.4389 63.6879 44.0884C63.4383 43.6538 62.9985 43.4571 62.5368 43.4067C62.1138 43.3601 61.6727 43.3964 61.2498 43.4636C60.801 43.5348 60.4517 43.9306 60.4181 44.3677C60.3858 44.7972 60.6302 45.1606 61.2446 45.3404C61.7219 45.4801 62.2173 45.5577 62.7023 45.6754C63.3879 45.8436 64.0928 45.9626 64.7486 46.2122C65.6501 46.555 66.5995 46.8796 67.3704 47.4319C68.4116 48.1782 69.017 49.257 69.0428 50.6255C69.0609 51.5606 68.8488 52.4285 68.3935 53.1981C67.9072 54.0208 67.254 54.7386 66.2981 55.0801C65.6398 55.3155 64.9982 55.6505 64.3191 55.7656C63.384 55.9234 62.4178 55.9855 61.4697 55.9558C60.8281 55.9351 60.1879 55.7023 59.5567 55.5341C59.0729 55.4048 58.5879 55.2599 58.1287 55.0646C57.544 54.8137 57.0784 54.401 56.7486 53.8449C56.561 53.5293 56.3062 53.2434 56.1691 52.9084C55.9557 52.3858 55.8069 51.8361 55.6491 51.2916C55.5948 51.1027 55.5935 50.8997 55.5586 50.6255C57.0448 50.5466 58.4727 50.4715 59.8994 50.3965C60.0378 50.8014 60.1555 51.1597 60.2797 51.5141C60.5436 52.263 61.3662 52.8502 62.1164 52.8476C62.6377 52.8463 63.168 52.9382 63.6724 52.6691C64.1096 52.435 64.6438 51.7728 64.5778 51.3886C64.4847 50.8492 64.2014 50.3823 63.6905 50.1831C63.0477 49.9322 62.3634 49.7834 61.6973 49.5946C61.1178 49.4303 60.5254 49.301 59.9615 49.0979C59.3794 48.8884 58.8103 48.6335 58.2619 48.3477C57.6514 48.0295 57.1625 47.5703 56.7369 47.0103C56.279 46.4075 56.1031 45.7039 56.0773 45.0261C56.0527 44.3897 56.2687 43.7029 56.5339 43.1066C56.852 42.3901 57.416 41.8287 58.1209 41.4381C58.6163 41.1639 59.1298 40.9711 59.6847 40.825C60.7052 40.5559 61.7348 40.5417 62.7696 40.5236C63.1783 40.5171 63.5987 40.5133 63.9958 40.5934C65.3048 40.856 66.6228 41.1302 67.5062 42.2775C68.0107 42.932 68.3832 43.6486 68.4465 44.4971C68.4543 44.6264 68.5384 44.7519 68.6432 45.0235Z" fill="white"/>
<path d="M55.7698 29.6094C55.5137 28.704 54.9614 28.109 54.1943 27.7093C54.0417 27.6304 53.8464 27.6007 53.6718 27.602C53.2191 27.6059 52.7508 27.5709 52.3188 27.6744C51.491 27.8736 50.9141 28.4466 50.5675 29.2007C50.2092 29.978 50.1808 30.8421 50.1833 31.6763C50.1859 32.4718 50.2739 33.2815 50.4433 34.0589C50.6115 34.8272 51.3436 35.6822 52.3848 35.8529C52.9914 35.9525 53.5256 35.8723 54.0753 35.7455C54.5901 35.6265 54.9536 35.2514 55.2226 34.8156C55.4464 34.4534 55.6107 34.0537 55.793 33.6657C55.828 33.5919 55.8306 33.5014 55.837 33.4173C55.8616 33.0953 56.0194 33.028 56.3091 33.1509C56.5846 33.2673 56.8912 33.31 57.1783 33.4018C57.7462 33.5829 58.3062 33.786 58.8766 33.958C59.2142 34.0602 59.5647 34.1223 59.9787 34.2193C59.8933 34.5853 59.8571 34.9384 59.7277 35.254C59.5311 35.7339 59.2918 36.2008 59.0306 36.6497C58.6283 37.3391 58.0837 37.8888 57.4124 38.3402C56.6364 38.8628 55.7905 39.1965 54.8799 39.2844C53.9408 39.3737 52.9875 39.3866 52.0459 39.331C51.3733 39.2922 50.7111 39.0852 50.0436 38.9559C49.2727 38.8071 48.6105 38.4113 48.0569 37.8978C47.5124 37.3934 46.9989 36.8178 46.6173 36.1853C46.2189 35.5244 45.9356 34.7949 45.7597 34.0097C45.4894 32.8016 45.5748 31.5949 45.6123 30.3932C45.6446 29.321 45.9874 28.3069 46.5319 27.3446C47.039 26.4495 47.6934 25.7368 48.5329 25.1884C48.9209 24.9349 49.3594 24.7227 49.8044 24.6025C50.6878 24.3645 51.5867 24.1523 52.4921 24.0295C53.0496 23.9544 53.6369 24.0282 54.2021 24.1006C54.8126 24.1795 55.4296 24.283 56.0129 24.4718C56.767 24.715 57.4901 25.0759 58.0372 25.6696C58.477 26.1468 58.8805 26.6668 59.2336 27.2101C59.4807 27.5903 59.6294 28.0392 59.7898 28.4699C59.8144 28.5358 59.6837 28.7337 59.5958 28.757C59.0668 28.8993 58.5287 29.0092 57.9932 29.127C57.5263 29.2291 57.0567 29.3223 56.5898 29.4219C56.3234 29.4814 56.0543 29.5447 55.7698 29.6094Z" fill="white"/>
<path d="M38.3381 30.0713C38.3381 31.0906 38.3381 32.0658 38.3381 33.1109C36.4251 33.1109 34.525 33.1109 32.603 33.1109C32.603 35.1572 32.603 37.1336 32.603 39.1294C31.0547 39.1294 29.5284 39.1294 27.9854 39.1294C27.9854 34.2156 27.9854 29.3147 27.9854 24.3711C31.7364 24.3711 35.4977 24.3711 39.2811 24.3711C39.2811 25.4317 39.2811 26.5027 39.2811 27.5944C37.0382 27.5944 34.8445 27.5944 32.6547 27.5944C32.6547 28.4287 32.6547 29.2409 32.6547 30.0726C34.5716 30.0713 36.4394 30.0713 38.3381 30.0713Z" fill="white"/>
<path d="M27.4356 24.3525C27.4356 25.4377 27.4356 26.4984 27.4356 27.5862C25.207 27.5862 22.9939 27.5862 20.7756 27.5862C20.7756 28.4243 20.7756 29.2366 20.7756 30.0696C22.6899 30.0696 24.5577 30.0696 26.4487 30.0696C26.4487 31.0733 26.4487 32.0563 26.4487 33.0782C24.5629 33.0782 22.6783 33.0782 20.7394 33.0782C20.7394 35.1076 20.7394 37.0995 20.7394 39.1199C19.1925 39.1199 17.6985 39.1199 16.1787 39.1199C16.1787 34.2151 16.1787 29.2961 16.1787 24.3538C19.9181 24.3525 23.6639 24.3525 27.4356 24.3525Z" fill="white"/>
<path d="M44.6591 39.1382C43.1509 39.1382 41.6634 39.1382 40.1721 39.1382C40.0091 38.9015 39.9147 27.4403 40.057 24.3916C41.5793 24.3916 43.1069 24.3916 44.6591 24.3916C44.6591 29.2666 44.6591 34.1856 44.6591 39.1382Z" fill="white"/>
</g>
</g>
<defs>
<clipPath id="clip0_517_1024">
<rect width="124.962" height="32" fill="white" transform="translate(0 24)"/>
</clipPath>
</defs>
</svg>
