<svg width="180" height="80" viewBox="0 0 180 80" fill="none" xmlns="http://www.w3.org/2000/svg">
<g opacity="0.5">
<g clip-path="url(#clip0_517_629)">
<path d="M15.0321 26.7401L14.2973 27.4749V29.6905V31.9004H11.3644L8.42568 31.9061L6.21579 34.0987L4 36.2969V40.0109V43.7308L6.21561 45.9464L8.42549 48.1562H12.851H17.2767L18.0172 47.4157L18.7519 46.681V37.0779V27.4747L18.0114 26.7342L17.2767 25.9996H16.5245H15.7724L15.0321 26.7401ZM13.9041 36.7424L14.2975 37.1299V40.0223V42.9152L13.9388 43.2796L13.58 43.644H11.3818H9.18334L8.8189 43.2853L8.45446 42.9266V40.0052V37.0838L8.81318 36.7193L9.1719 36.3549H11.3414H13.5108L13.9041 36.7424Z" fill="white"/>
<path d="M96.1381 26.7403L95.4033 27.4751V37.0782L95.409 46.6813L96.1495 47.3871L96.8958 48.0986H101.345H105.787L108.003 45.883L110.213 43.6731V39.9996V36.326L107.986 34.0988L105.758 31.8716L102.837 31.8542L99.9155 31.8369V29.656V27.4751L99.175 26.7346L98.4403 25.9998H97.6593H96.8784L96.1381 26.7403ZM105.336 36.7137L105.701 37.0725V39.9939V42.9153L105.342 43.2797L104.983 43.6442H102.814H100.644L100.28 43.2855L99.9155 42.9267V39.9763V37.026L100.245 36.6905L100.575 36.355H102.773H104.972L105.336 36.7137Z" fill="white"/>
<path d="M57.0317 26.7974L56.2969 27.5322V28.2843V29.0364L57.0374 29.7769L57.7722 30.5117H58.5243H59.2764L60.0169 29.7712L60.7517 29.0364V28.2843V27.5322L60.0112 26.7917L59.2764 26.0569H58.5243H57.7722L57.0317 26.7974Z" fill="white"/>
<path d="M171.419 27.8274C170.597 28.0472 169.863 28.6373 169.516 29.3662C169.018 30.4191 169.209 31.6687 170.008 32.5306C170.517 33.086 171.396 33.4619 172.171 33.4619C173.432 33.4619 174.555 32.6694 174.942 31.5124C175.104 31.0323 175.11 30.205 174.954 29.7075C174.664 28.782 173.872 28.0472 172.912 27.8217C172.455 27.7174 171.836 27.7174 171.419 27.8274ZM173.074 28.5736C174.404 29.2215 174.722 31.0206 173.698 32.1256C173.265 32.6 172.825 32.7908 172.2 32.7851C171.327 32.7851 170.632 32.3453 170.251 31.5644C170.071 31.2057 170.06 31.1363 170.06 30.5983C170.06 30.0891 170.077 29.9792 170.216 29.6843C170.644 28.7761 171.321 28.348 172.264 28.3884C172.634 28.4059 172.802 28.4406 173.074 28.5736Z" fill="white"/>
<path d="M171.263 29.1644L171.072 29.1875V30.6338V32.0742H171.419H171.766V31.5247V30.9752H172.021C172.374 30.9752 172.495 31.0966 172.651 31.6116L172.784 32.0454L173.178 32.0628C173.542 32.0801 173.571 32.0685 173.537 31.976C173.514 31.9181 173.456 31.6983 173.404 31.4902C173.305 31.0447 173.143 30.744 172.975 30.7034C172.871 30.6744 172.877 30.6571 173.045 30.582C173.571 30.3216 173.56 29.5464 173.022 29.2572C172.877 29.182 172.675 29.1532 172.143 29.1473C171.761 29.1412 171.362 29.1471 171.263 29.1644ZM172.397 29.7082C172.64 29.7949 172.733 30.009 172.605 30.2C172.519 30.3387 172.206 30.4544 171.929 30.4544C171.767 30.4544 171.767 30.4487 171.767 30.09C171.767 29.8876 171.784 29.7023 171.807 29.685C171.865 29.6215 172.195 29.6388 172.397 29.7082Z" fill="white"/>
<path d="M25.4916 31.8248L24.8552 31.8478L22.6453 34.0577L20.4297 36.2676V39.9411V43.6147L22.6453 45.8246L24.8552 48.0402H29.3039L33.7527 48.0459L34.4989 47.3054L35.2394 46.5649V45.8244V45.0896L34.4758 44.3375L33.7063 43.5913L29.6567 43.5855H25.6014L25.26 43.2384L24.9129 42.8856L25.2717 42.5443L25.6245 42.1972H29.6971H33.7643L34.5048 41.4567L35.2396 40.7219V38.4946V36.2674L33.0007 34.0286L30.7561 31.784L28.4422 31.7956C27.1693 31.8017 25.8446 31.819 25.4916 31.8248ZM30.3627 36.6206L30.7329 36.9503L30.3742 37.3148L30.0097 37.6849H27.8056H25.6014L25.26 37.3378L24.9187 36.9908L25.26 36.6437L25.6014 36.2966H27.7997H29.9922L30.3627 36.6206Z" fill="white"/>
<path d="M79.6565 32.5195L78.916 33.26V39.9417V46.6233L79.6565 47.3638L80.3913 48.0986H81.1434H81.8956L82.6361 47.3581L83.3708 46.6233V42.2266V37.8299L84.0997 37.0605L84.8286 36.2969H86.2806H87.7384L88.4789 37.0374L89.2137 37.7722V42.1977V46.6232L89.9542 47.3637L90.689 48.0984H91.4699H92.2508L92.9913 47.3579L93.7261 46.6232V41.4455V36.2679L91.5162 34.058L89.3006 31.8481L84.8461 31.8077L80.3917 31.773L79.6565 32.5195Z" fill="white"/>
<path d="M145.722 32.5252L144.981 33.283V39.9533V46.6233L145.722 47.3638L146.457 48.0986H147.238H148.019L148.759 47.3581L149.494 46.6233V42.1979V37.7724L150.234 37.0319L150.969 36.2971H152.415H153.862L154.602 37.0376L155.337 37.7724V42.1979V46.6233L156.077 47.3638L156.812 48.0986H157.593H158.374L159.086 47.3871L159.791 46.6813V42.2268V37.7724L160.532 37.0319L161.267 36.2971H162.713H164.159L164.9 37.0376L165.635 37.7724V42.1979V46.6233L166.375 47.3638L167.11 48.0986H167.891H168.672L169.412 47.3581L170.147 46.6233V41.4457V36.2681L167.908 34.0292L165.664 31.7847H162.742H159.821L158.687 32.9186L157.559 34.0466L156.465 32.9359L155.378 31.8253L150.917 31.7963L146.457 31.7673L145.722 32.5252Z" fill="white"/>
<path d="M42.5578 31.8828L41.2851 31.9002L39.1042 34.087L36.9174 36.2679V38.5241V40.7803L37.6289 41.4802L38.3347 42.186L42.4131 42.2207L46.4858 42.2554L46.8386 42.6025L47.1857 42.9496L46.8386 43.2967L46.4972 43.6438H42.4419H38.3923L37.6518 44.3843L36.917 45.1191V45.8712V46.6233L37.6575 47.3638L38.3923 48.0986H42.8178H47.2433L49.4589 45.883L51.6688 43.6731V41.4459V39.2187L50.9282 38.4782L50.1935 37.7434H46.1612H42.1289L41.7471 37.3847L41.3654 37.0319L41.7298 36.6617L42.0885 36.2973H46.1439H50.1935L50.934 35.5684L51.6688 34.8395V34.0759V33.3181L50.9282 32.5776L50.1935 31.8428L47.0117 31.8544C45.2594 31.8655 43.2579 31.8769 42.5578 31.8828Z" fill="white"/>
<path d="M64.639 34.116L62.4291 36.3258V40.0284V43.7307L64.6447 45.9463L66.8546 48.1562H69.4636H72.0726L72.3734 48.4686C72.5354 48.6422 72.6684 48.8041 72.6684 48.833C72.6684 48.8561 72.518 49.024 72.3387 49.2091L72.0089 49.5446H67.9536H63.904L63.1635 50.2851L62.4287 51.0198V51.8008V52.5817L63.1402 53.2932L63.8461 53.999H68.3295H72.8129L75.0285 51.7834L77.2384 49.5735V42.9496V36.3257L75.0228 34.1101L72.8129 31.9002H69.8336H66.8542L64.639 34.116ZM72.3621 36.7135L72.7266 37.0723V39.9937V42.9151L72.3678 43.2795L72.0091 43.644H69.8109H67.6126L67.2771 43.3142L66.9417 42.9845V40.0341V37.0837L67.3004 36.7193L67.6591 36.3548H69.8286H71.9981L72.3621 36.7135Z" fill="white"/>
<path d="M114.101 34.1162L111.892 36.326V40.0343V43.7368L114.084 45.9177L116.277 48.0986H119.296H122.316L124.538 45.9234L126.759 43.7482V40.0343V36.326L124.544 34.1104L122.334 31.9006H119.326H116.317L114.101 34.1162ZM121.853 36.7425L122.247 37.13V40.0514V42.9729L121.888 43.3373L121.529 43.7017H119.331H117.133L116.768 43.343L116.404 42.9843V40.0339V37.0835L116.763 36.7191L117.121 36.3547H119.291H121.46L121.853 36.7425Z" fill="white"/>
<path d="M130.646 34.1162L128.437 36.326V40.04V43.7482L130.646 45.9234L132.851 48.0986H135.865H138.879L141.094 45.9234L143.304 43.7482V40.04V36.326L141.089 34.1104L138.879 31.9006H135.871H132.862L130.646 34.1162ZM138.427 36.7137L138.792 37.0725V40.0228V42.9732L138.433 43.3377L138.074 43.7021H135.876H133.678L133.313 43.3434L132.949 42.9847V40.0343V37.0839L133.308 36.7195L133.666 36.355H135.865H138.063L138.427 36.7137Z" fill="white"/>
<path d="M54.0815 32.6991L53.3467 33.4339V34.186V34.9381L54.0872 35.6786L54.822 36.4134H55.5625H56.2973V41.5506V46.6819L57.0378 47.4224L57.7725 48.1572H58.5247H59.2768L60.0173 47.4167L60.7521 46.6819V40.058V33.4341L60.0116 32.6936L59.2768 31.9588H57.0496H54.8223L54.0815 32.6991Z" fill="white"/>
</g>
</g>
<defs>
<clipPath id="clip0_517_629">
<rect width="171.067" height="28" fill="white" transform="translate(4 26)"/>
</clipPath>
</defs>
</svg>
