<svg width="80" height="80" viewBox="0 0 80 80" fill="none" xmlns="http://www.w3.org/2000/svg">
<g opacity="0.5">
<g clip-path="url(#clip0_517_1171)">
<path d="M15.0321 26.7401L14.2973 27.4749V29.6905V31.9004H11.3644L8.42568 31.9061L6.21579 34.0987L4 36.2969V40.0109V43.7308L6.21561 45.9464L8.42549 48.1562H12.851H17.2767L18.0172 47.4157L18.7519 46.681V37.0779V27.4747L18.0114 26.7342L17.2767 25.9996H16.5245H15.7724L15.0321 26.7401ZM13.9041 36.7424L14.2975 37.1299V40.0223V42.9152L13.9388 43.2796L13.58 43.644H11.3818H9.18334L8.8189 43.2853L8.45446 42.9266V40.0052V37.0838L8.81318 36.7193L9.1719 36.3549H11.3414H13.5108L13.9041 36.7424Z" fill="white"/>
<path d="M57.0317 26.7974L56.2969 27.5322V28.2843V29.0364L57.0374 29.7769L57.7722 30.5117H58.5243H59.2764L60.0169 29.7712L60.7517 29.0364V28.2843V27.5322L60.0112 26.7917L59.2764 26.0569H58.5243H57.7722L57.0317 26.7974Z" fill="white"/>
<path d="M25.4916 31.8248L24.8552 31.8478L22.6453 34.0577L20.4297 36.2676V39.9411V43.6147L22.6453 45.8246L24.8552 48.0402H29.3039L33.7527 48.0459L34.4989 47.3054L35.2394 46.5649V45.8244V45.0896L34.4758 44.3375L33.7063 43.5913L29.6567 43.5855H25.6014L25.26 43.2384L24.9129 42.8856L25.2717 42.5443L25.6245 42.1972H29.6971H33.7643L34.5048 41.4567L35.2396 40.7219V38.4946V36.2674L33.0007 34.0286L30.7561 31.784L28.4422 31.7956C27.1693 31.8017 25.8446 31.819 25.4916 31.8248ZM30.3627 36.6206L30.7329 36.9503L30.3742 37.3148L30.0097 37.6849H27.8056H25.6014L25.26 37.3378L24.9187 36.9908L25.26 36.6437L25.6014 36.2966H27.7997H29.9922L30.3627 36.6206Z" fill="white"/>
<path d="M79.6565 32.5195L78.916 33.26V39.9417V46.6233L79.6565 47.3638L80.3913 48.0986H81.1434H81.8956L82.6361 47.3581L83.3708 46.6233V42.2266V37.8299L84.0997 37.0605L84.8286 36.2969H86.2806H87.7384L88.4789 37.0374L89.2137 37.7722V42.1977V46.6232L89.9542 47.3637L90.689 48.0984H91.4699H92.2508L92.9913 47.3579L93.7261 46.6232V41.4455V36.2679L91.5162 34.058L89.3006 31.8481L84.8461 31.8077L80.3917 31.773L79.6565 32.5195Z" fill="white"/>
<path d="M42.5578 31.8828L41.2851 31.9002L39.1042 34.087L36.9174 36.2679V38.5241V40.7803L37.6289 41.4802L38.3347 42.186L42.4131 42.2207L46.4858 42.2554L46.8386 42.6025L47.1857 42.9496L46.8386 43.2967L46.4972 43.6438H42.4419H38.3923L37.6518 44.3843L36.917 45.1191V45.8712V46.6233L37.6575 47.3638L38.3923 48.0986H42.8178H47.2433L49.4589 45.883L51.6688 43.6731V41.4459V39.2187L50.9282 38.4782L50.1935 37.7434H46.1612H42.1289L41.7471 37.3847L41.3654 37.0319L41.7298 36.6617L42.0885 36.2973H46.1439H50.1935L50.934 35.5684L51.6688 34.8395V34.0759V33.3181L50.9282 32.5776L50.1935 31.8428L47.0117 31.8544C45.2594 31.8655 43.2579 31.8769 42.5578 31.8828Z" fill="white"/>
<path d="M64.639 34.116L62.4291 36.3258V40.0284V43.7307L64.6447 45.9463L66.8546 48.1562H69.4636H72.0726L72.3734 48.4686C72.5354 48.6422 72.6684 48.8041 72.6684 48.833C72.6684 48.8561 72.518 49.024 72.3387 49.2091L72.0089 49.5446H67.9536H63.904L63.1635 50.2851L62.4287 51.0198V51.8008V52.5817L63.1402 53.2932L63.8461 53.999H68.3295H72.8129L75.0285 51.7834L77.2384 49.5735V42.9496V36.3257L75.0228 34.1101L72.8129 31.9002H69.8336H66.8542L64.639 34.116ZM72.3621 36.7135L72.7266 37.0723V39.9937V42.9151L72.3678 43.2795L72.0091 43.644H69.8109H67.6126L67.2771 43.3142L66.9417 42.9845V40.0341V37.0837L67.3004 36.7193L67.6591 36.3548H69.8286H71.9981L72.3621 36.7135Z" fill="white"/>
<path d="M54.0815 32.6991L53.3467 33.4339V34.186V34.9381L54.0872 35.6786L54.822 36.4134H55.5625H56.2973V41.5506V46.6819L57.0378 47.4224L57.7725 48.1572H58.5247H59.2768L60.0173 47.4167L60.7521 46.6819V40.058V33.4341L60.0116 32.6936L59.2768 31.9588H57.0496H54.8223L54.0815 32.6991Z" fill="white"/>
</g>
</g>
<defs>
<clipPath id="clip0_517_1171">
<rect width="171.067" height="28" fill="white" transform="translate(4 26)"/>
</clipPath>
</defs>
</svg>
