<svg width="143" height="80" viewBox="0 0 143 80" fill="none" xmlns="http://www.w3.org/2000/svg">
<g opacity="0.5">
<g clip-path="url(#clip0_517_908)">
<path d="M3 28.0156C4.59557 28.0156 6.07515 28.0156 7.65233 28.0156C8.96075 33.3752 10.2734 38.7532 11.5875 44.1326C11.6427 44.1354 11.6964 44.1396 11.7516 44.1425C13.0727 38.7744 14.3953 33.4049 15.7207 28.0185C17.2639 28.0185 18.7661 28.0185 20.3575 28.0185C19.9798 29.4598 19.6148 30.863 19.2428 32.2634C17.5907 38.4703 15.9272 44.6729 14.2963 50.8854C14.1421 51.4753 13.9016 51.6662 13.2991 51.645C11.9623 51.5983 10.6228 51.6309 9.2578 51.6309C7.16432 43.7337 5.08923 35.9001 3 28.0156Z" fill="white"/>
<path d="M131.242 34.7911C131.242 34.0584 131.242 33.4785 131.242 32.849C132.589 32.849 133.873 32.849 135.221 32.849C135.221 39.0601 135.221 45.2896 135.221 51.5757C133.934 51.5757 132.631 51.5757 131.245 51.5757C131.245 50.9958 131.245 50.4215 131.245 49.6562C130.391 50.7666 129.467 51.4809 128.284 51.7341C124.823 52.4782 122.034 51.0835 121.414 47.26C121.209 45.9898 121.205 44.6785 121.212 43.3871C121.224 41.3403 121.181 39.2751 121.427 37.251C121.749 34.5832 123.458 32.9127 125.764 32.6382C128.03 32.3709 129.557 32.9452 131.242 34.7911ZM125.469 42.2357C125.532 43.4295 125.516 44.6361 125.675 45.8201C125.868 47.2685 126.837 48.0465 128.222 48.0507C129.645 48.055 130.741 47.2699 130.825 45.8073C130.962 43.4423 130.962 41.0574 130.828 38.6909C130.746 37.2453 129.632 36.456 128.208 36.4631C126.834 36.4701 125.865 37.2594 125.67 38.7093C125.515 39.8706 125.53 41.0532 125.469 42.2357Z" fill="white"/>
<path d="M109.253 43.5144C106.107 43.5144 102.911 43.5144 99.6664 43.5144C99.6664 44.4593 99.5377 45.3674 99.6919 46.2232C100.055 48.2304 102.488 49.1131 104.145 47.9093C104.887 47.3704 105.066 46.5811 105.101 45.6899C106.524 45.6899 107.92 45.6899 109.373 45.6899C109.373 47.6123 108.695 49.1979 107.237 50.4187C104.749 52.4994 100.109 52.5121 97.6196 50.4498C96.3211 49.3747 95.5205 47.9362 95.4512 46.2996C95.3352 43.5314 95.2192 40.7264 95.5431 37.9879C95.9363 34.6539 98.4329 32.6821 101.794 32.6312C102.886 32.6142 104.03 32.6878 105.066 33.0004C107.586 33.76 108.944 35.6455 109.216 38.186C109.401 39.9088 109.253 41.6642 109.253 43.5144ZM105.109 40.4379C105.054 39.6585 105.06 38.9512 104.943 38.2652C104.702 36.8691 103.852 36.1844 102.452 36.166C100.918 36.1462 99.9337 36.8351 99.6989 38.2355C99.5815 38.9371 99.6791 39.674 99.6791 40.4379C101.451 40.4379 103.205 40.4379 105.109 40.4379Z" fill="white"/>
<path d="M32.043 43.515C32.043 44.4401 31.9298 45.2987 32.0656 46.1163C32.4009 48.156 34.7306 49.1094 36.4506 47.9735C37.1183 47.5336 37.3559 47.0357 37.5384 45.6792C38.9147 45.6792 40.2953 45.6792 41.7593 45.6792C41.7791 47.2663 41.325 48.6412 40.2613 49.8067C37.5398 52.7914 31.7474 52.7121 29.2465 49.6667C28.378 48.6101 27.8377 47.3738 27.8009 46.0526C27.7259 43.399 27.6156 40.7143 27.9169 38.0875C28.3059 34.6998 30.7982 32.6813 34.2298 32.6317C35.3204 32.6162 36.4662 32.694 37.4988 33.0137C40.2429 33.8624 41.4665 35.9983 41.7112 38.7057C41.8526 40.2673 41.7366 41.8529 41.7366 43.5136C38.5059 43.515 35.2935 43.515 32.043 43.515ZM37.5115 40.4314C37.4606 39.7283 37.4549 39.0748 37.3601 38.4341C37.131 36.8894 36.3007 36.1737 34.8027 36.1666C33.2354 36.1581 32.2651 36.9205 32.0543 38.4256C31.9652 39.0664 32.0388 39.7298 32.0388 40.4314C33.8507 40.4314 35.6231 40.4314 37.5115 40.4314Z" fill="white"/>
<path d="M83.3497 43.5274C80.0977 43.5274 76.9037 43.5274 73.5697 43.5274C73.6292 44.5232 73.5867 45.4709 73.7621 46.3762C73.9983 47.5998 75.2375 48.4782 76.461 48.4584C77.7327 48.4386 78.7497 47.72 79.0184 46.6252C79.0906 46.3338 79.0934 46.0254 79.133 45.6845C80.5178 45.6845 81.897 45.6845 83.361 45.6845C83.4614 46.9038 83.1488 48.0142 82.4967 49.0115C80.9832 51.3298 78.6761 52.0272 76.0748 51.9678C73.7989 51.9154 71.7493 51.2025 70.5441 49.1444C69.9557 48.1387 69.4832 46.9265 69.4167 45.7821C69.2725 43.2982 69.2385 40.779 69.5002 38.3093C69.8736 34.7744 72.3476 32.6866 75.9164 32.63C76.9844 32.613 78.1047 32.6965 79.116 33.0077C81.8291 33.8422 83.0781 35.9343 83.3256 38.6205C83.4699 40.2075 83.3497 41.8187 83.3497 43.5274ZM79.1839 40.4735C79.0609 39.5003 79.0425 38.6035 78.8162 37.7633C78.512 36.6288 77.6492 36.1493 76.2998 36.1677C75.0352 36.1847 74.0988 36.7646 73.8286 37.8679C73.6518 38.5865 73.6659 39.356 73.6334 40.1029C73.6277 40.2217 73.8286 40.4565 73.9375 40.4579C75.6264 40.4805 77.3154 40.4735 79.1839 40.4735Z" fill="white"/>
<path d="M67.7808 40.2544C66.2913 40.2544 64.9079 40.2544 63.4934 40.2544C63.4128 39.7113 63.3619 39.1752 63.2487 38.6546C62.9375 37.2232 61.9785 36.4636 60.6007 36.5216C59.1367 36.5838 58.2314 37.3717 58.0532 38.8527C57.9556 39.6674 57.9811 40.4992 57.9811 41.3238C57.9811 42.5955 57.9669 43.8714 58.0433 45.1402C58.0758 45.6876 58.2541 46.2534 58.4818 46.7584C58.8623 47.6014 59.5809 48.0046 60.5074 48.0569C61.5089 48.1135 62.3788 47.8094 62.8229 46.8956C63.1851 46.153 63.3392 45.3099 63.6122 44.423C64.8726 44.423 66.2715 44.423 67.6705 44.423C67.8911 48.5265 65.7184 51.4602 62.0916 51.8676C61.0746 51.9822 60.0038 51.9864 59.0023 51.8025C56.0573 51.2608 54.2453 49.4587 53.8337 46.3977C53.4546 43.5757 53.3952 40.6986 53.9059 37.8781C54.4929 34.6403 56.8707 32.6797 60.1523 32.6373C61.267 32.6232 62.4354 32.701 63.4906 33.0263C66.1923 33.8594 67.2772 36.0109 67.6422 38.632C67.7143 39.1398 67.7313 39.6575 67.7808 40.2544Z" fill="white"/>
<path d="M52.485 47.8943C52.485 49.2791 52.485 50.5225 52.485 51.8252C50.8555 51.9525 49.2684 51.9964 47.7407 51.3768C45.8269 50.6003 45.0248 49.0047 44.8721 47.1036C44.7066 45.0427 44.7335 42.9647 44.6995 40.8939C44.6769 39.5091 44.6953 38.1243 44.6953 36.6617C44.0743 36.6617 43.5212 36.6617 42.9102 36.6617C42.9102 35.4664 42.9102 34.3475 42.9102 33.2273C45.7533 32.2626 45.8085 32.1763 46.1664 28.0459C47.0632 28.0459 47.9684 28.0459 48.9529 28.0459C48.9529 29.5962 48.9529 31.1621 48.9529 32.8185C50.1454 32.8185 51.2643 32.8185 52.4242 32.8185C52.4242 34.1198 52.4242 35.3292 52.4242 36.6122C51.3095 36.6122 50.2133 36.6122 49.052 36.6122C49.052 40.3889 49.052 44.0949 49.052 47.8957C50.1666 47.8943 51.3039 47.8943 52.485 47.8943Z" fill="white"/>
<path d="M90.6784 47.9308C91.8425 47.9308 92.9445 47.9308 94.0959 47.9308C94.0959 49.2407 94.0959 50.4996 94.0959 51.8264C92.2414 51.9622 90.4082 52.0386 88.7377 51.0597C87.1351 50.1205 86.5367 48.5419 86.4646 46.8205C86.3344 43.7382 86.3514 40.6489 86.3076 37.5639C86.3033 37.2867 86.3076 37.008 86.3076 36.6586C85.688 36.6586 85.1321 36.6586 84.5225 36.6586C84.5225 35.4676 84.5225 34.3473 84.5225 33.1931C87.7716 32.9045 87.5792 30.3796 87.7956 28.0527C88.691 28.0527 89.5935 28.0527 90.5879 28.0527C90.5879 29.6059 90.5879 31.1703 90.5879 32.8295C91.7888 32.8295 92.9063 32.8295 94.0605 32.8295C94.0605 34.138 94.0605 35.3488 94.0605 36.6303C92.9261 36.6303 91.8284 36.6303 90.677 36.6303C90.6784 40.4071 90.6784 44.1187 90.6784 47.9308Z" fill="white"/>
<path d="M115.797 51.5995C114.309 51.5995 112.948 51.5995 111.525 51.5995C111.525 45.3686 111.525 39.1391 111.525 32.853C112.806 32.853 114.105 32.853 115.495 32.853C115.495 33.549 115.495 34.2364 115.495 34.9225C116.63 32.9902 118.332 32.4669 120.417 32.6196C120.417 34.061 120.417 35.4359 120.417 36.8702C118.879 36.8702 117.379 36.8702 115.799 36.8702C115.797 41.7899 115.797 46.653 115.797 51.5995Z" fill="white"/>
<path d="M21.3193 34.4961C22.7636 34.4961 24.1469 34.4961 25.5699 34.4961C25.5699 40.1937 25.5699 45.8617 25.5699 51.5806C24.1625 51.5806 22.7621 51.5806 21.3193 51.5806C21.3193 45.8999 21.3193 40.2319 21.3193 34.4961Z" fill="white"/>
<path d="M26.0866 30.6385C26.0781 32.1606 24.9621 33.2865 23.4669 33.2794C21.9789 33.2724 20.8416 32.1252 20.8359 30.6272C20.8317 29.1943 22.0779 27.9722 23.5136 28.0005C24.9536 28.0302 26.0937 29.1972 26.0866 30.6385Z" fill="white"/>
<path d="M142.093 49.2517C142.09 50.7865 140.994 51.894 139.48 51.894C137.984 51.894 136.846 50.7624 136.835 49.263C136.825 47.8259 138.047 46.6221 139.507 46.6349C140.951 46.6476 142.096 47.8061 142.093 49.2517Z" fill="white"/>
</g>
</g>
<defs>
<clipPath id="clip0_517_908">
<rect width="139.093" height="24" fill="white" transform="translate(3 28)"/>
</clipPath>
</defs>
</svg>
