<svg width="80" height="80" viewBox="0 0 80 80" fill="none" xmlns="http://www.w3.org/2000/svg">
<g opacity="0.5">
<g clip-path="url(#clip0_517_859)">
<path d="M16.1273 18.9966C16.1273 21.37 16.1273 23.5673 16.1273 25.9538C18.6318 26.1451 21.1233 25.9166 23.6814 26.0883C23.6814 26.719 23.6814 27.258 23.6814 27.7926C22.5619 28.091 16.1513 28.15 14.2754 27.8691C14.2754 21.3481 14.2754 14.8107 14.2754 8.17163C21.191 8.17163 28.0848 8.17163 35.0835 8.17163C35.0835 8.70621 35.0835 9.23751 35.0835 9.94154C33.0524 9.94154 31.0277 9.94154 29.049 9.94154C28.7254 11.2282 28.6795 23.0163 28.9966 24.8693C32.8709 19.1322 36.6326 13.5612 40.3889 8C41.3925 8 42.2954 8 43.2979 8C43.2979 14.6587 43.2979 21.2399 43.2979 27.9259C42.6464 27.9259 42.0637 27.9259 41.3072 27.9259C41.3072 25.8609 41.3072 23.8395 41.3072 21.7471C38.6409 21.7471 36.1451 21.7471 33.517 21.7471C32.1581 23.7619 30.7588 25.8357 29.3409 27.938C28.5702 27.938 27.8279 27.938 26.9457 27.938C26.9457 21.9636 26.9457 16.0854 26.9457 10.2487C25.7508 9.91968 18.317 9.83987 16.1153 10.1186C16.1043 11.2501 16.0879 12.4122 16.0825 13.5732C16.077 14.6981 16.0814 15.823 16.0814 17.0966C17.9836 17.4639 19.8803 17.0562 21.7825 17.3557C21.7825 17.8739 21.7825 18.3068 21.7825 18.8359C19.8661 19.0327 17.9803 18.7616 16.1273 18.9966ZM41.2066 19.8832C41.2066 16.6998 41.2066 13.6257 41.2066 10.2345C38.9732 13.5786 36.9169 16.6582 34.7632 19.8832C37.0655 19.8832 39.1295 19.8832 41.2066 19.8832Z" fill="white"/>
<path d="M66.3308 32.8694C66.3308 34.9093 66.3308 36.9493 66.3308 39.1116C65.6705 39.1116 65.0911 39.1116 64.3423 39.1116C63.7126 36.1939 62.1854 33.8019 59.3201 32.4879C57.4889 31.6483 55.5703 31.5237 53.6124 32.0222C49.6845 33.0246 47.0127 36.6574 47.2401 40.7383C47.4708 44.8838 50.8061 48.3296 54.6947 48.7384C58.8314 49.1724 62.6084 46.833 63.7333 43.0067C61.2583 43.0067 58.8259 43.0067 56.2995 43.0067C56.2995 42.3136 56.2995 41.7823 56.2995 41.1603C59.624 41.1603 62.8741 41.1603 66.2138 41.1603C66.2138 44.1765 66.2138 47.127 66.2138 50.1793C65.6585 50.1793 65.1294 50.1793 64.4658 50.1793C64.4658 49.0106 64.4658 47.8978 64.4658 46.4799C63.8602 47.0527 63.4764 47.4178 63.0894 47.7797C57.1752 53.3168 47.2685 50.4493 45.5041 42.5935C43.9211 35.5456 49.2319 30.2577 54.9286 29.9068C58.4225 29.6914 61.3742 30.8131 63.7432 33.4073C63.8787 33.5548 63.9312 33.779 64.0219 33.967C64.1367 33.9058 64.2504 33.8445 64.3652 33.7833C64.3652 32.7021 64.3652 31.6199 64.3652 30.4075C65.4497 30.4075 66.3887 30.4075 67.459 30.4075C70.9081 36.0113 74.4118 41.7025 77.9156 47.3938C78.0063 47.3621 78.097 47.3304 78.1878 47.2998C78.1878 41.6861 78.1878 36.0725 78.1878 30.3703C78.8404 30.3703 79.375 30.3703 80.0003 30.3703C80.0003 36.9504 80.0003 43.4932 80.0003 50.1585C79.105 50.1585 78.2118 50.1585 77.1558 50.1585C73.6947 44.4246 70.1833 38.6077 66.6719 32.7907C66.5571 32.8158 66.4434 32.8421 66.3308 32.8694Z" fill="white"/>
<path d="M64.4266 56.3199C64.4266 54.8189 64.4266 53.7497 64.4266 52.5199C65.0279 52.4936 65.557 52.4696 66.0675 52.4466C66.3517 53.6852 66.4075 59.3349 66.1637 61.3388C65.9013 61.3694 65.6138 61.4274 65.3252 61.4317C65.0257 61.4361 64.7261 61.3869 64.3326 61.353C63.728 58.5577 62.3539 56.2936 59.7837 54.926C58.0062 53.9804 56.081 53.6339 54.1231 54.0875C49.3381 55.1961 47.1615 58.9611 47.2435 62.5687C47.3463 67.1044 50.4488 70.1982 54.3144 70.8727C58.4664 71.5964 62.2981 69.3422 63.7521 65.3312C62.5003 64.9847 61.2377 65.2 59.998 65.1629C58.7823 65.1257 57.5656 65.1552 56.2734 65.1552C56.2734 64.4894 56.2734 63.9997 56.2734 63.5263C57.4191 63.2246 64.2145 63.1612 66.0773 63.4192C66.3495 64.496 66.4184 70.2922 66.1713 72.342C65.6554 72.342 65.1262 72.342 64.455 72.342C64.455 71.1766 64.455 70.0659 64.455 68.5802C61.5482 71.9397 58.1406 73.2668 54.1078 72.7158C51.4775 72.3562 49.2878 71.0716 47.5605 69.0284C44.2033 65.0568 44.4974 58.8452 48.2427 55.1742C50.5275 52.9342 53.289 51.9197 56.4811 52.1056C59.6143 52.2848 62.1352 53.7093 64.4266 56.3199Z" fill="white"/>
<path d="M33.9746 52.0967C39.7348 52.1032 44.3579 56.6991 44.3733 62.4341C44.3896 68.2368 39.6593 72.9999 33.9473 72.9267C28.5348 72.8578 23.5771 68.8698 23.5509 62.5598C23.5225 55.5326 29.3547 51.925 33.9746 52.0967ZM33.9681 53.9672C30.0096 53.9333 25.7788 57.1856 25.7242 62.4078C25.6717 67.336 29.6772 70.8879 33.8773 70.9305C38.647 70.9797 42.1781 66.7533 42.2043 62.5773C42.2338 57.9071 38.4721 53.9759 33.9681 53.9672Z" fill="white"/>
<path d="M0.180411 52.4375C2.97028 52.5359 5.67926 52.2123 8.37183 52.7403C11.6657 53.3864 12.6736 56.313 12.3074 58.2447C12.033 59.6932 11.3891 60.9493 9.84767 61.7746C11.7247 62.3453 13.0223 63.3346 13.4126 65.1363C14.1177 68.3973 13.2005 70.7696 10.5943 71.8027C9.79738 72.1186 8.91734 72.3569 8.06792 72.381C5.46499 72.4553 2.85877 72.4083 0.271147 72.4083C-0.0207399 71.2615 -0.103824 54.6546 0.180411 52.4375ZM2.08478 62.9367C2.08478 65.5112 2.08478 67.9469 2.08478 70.4197C2.36902 70.4733 2.56252 70.54 2.75711 70.54C4.29525 70.54 5.83449 70.5455 7.37154 70.5061C7.87879 70.493 8.3926 70.3891 8.88783 70.2634C10.9442 69.743 11.9904 68.0081 11.5257 65.9299C11.1475 64.2398 9.94277 63.1357 7.87442 62.9684C5.99519 62.8176 4.0952 62.9367 2.08478 62.9367ZM2.08369 61.0061C3.93996 60.9995 5.70877 61.1777 7.47431 60.8738C7.92034 60.7973 8.36965 60.6432 8.77304 60.4376C10.0193 59.8025 10.462 58.7596 10.2653 57.0552C10.1155 55.7543 9.40491 54.9268 8.08432 54.6163C6.12747 54.1561 4.15204 54.3517 2.0826 54.3769C2.08369 56.6267 2.08369 58.7421 2.08369 61.0061Z" fill="white"/>
<path d="M0.0957031 50.199C0.0957031 43.5217 0.0957031 36.9843 0.0957031 30.3474C3.58523 30.1627 7.01244 30.1004 10.2822 31.3084C13.8822 32.6377 15.9418 35.2505 16.1156 39.162C16.1703 40.3831 16.1878 41.6403 15.9691 42.8341C15.4214 45.8317 13.6395 47.9525 10.8048 49.0206C9.29069 49.5912 7.66399 49.9924 6.05588 50.1531C4.13949 50.3455 2.18701 50.199 0.0957031 50.199ZM1.96291 48.3428C2.79702 48.3428 3.50542 48.3843 4.20836 48.3329C5.38247 48.2477 6.5675 48.1832 7.72193 47.97C11.4454 47.2856 14.5611 44.5351 14.2353 39.6572C14.0483 36.8586 12.7999 34.799 10.3533 33.4565C8.59541 32.4912 6.65715 32.2824 4.70796 32.1731C3.81043 32.1228 2.90525 32.195 1.96291 32.2125C1.96291 37.6107 1.96291 42.8341 1.96291 48.3428Z" fill="white"/>
<path d="M11.9338 28.0266C11.4244 28.0266 10.916 28.0364 10.4066 28.0233C10.1027 28.0157 9.79986 27.973 9.45988 27.9424C7.06137 25.3734 4.66287 22.8032 2.00965 19.962C2.00965 22.824 2.00965 25.3023 2.00965 27.844C1.60844 27.9205 1.32639 27.9993 1.03888 28.0222C0.789627 28.043 0.536003 28.0003 0.300963 27.9872C-0.0324663 26.9028 -0.12211 10.2597 0.202574 8.08425C2.92248 8.1892 5.69267 7.67649 8.39509 8.43845C12.0825 9.47809 13.7791 13.5809 11.9786 16.9338C11.0538 18.6567 9.48065 19.4405 7.65389 19.798C6.81431 19.962 5.95723 20.0374 4.89791 20.1806C7.37294 22.7792 9.72225 25.2455 12.0705 27.7117C12.0245 27.8167 11.9786 27.9216 11.9338 28.0266ZM2.07087 17.9887C3.26247 17.9887 4.32944 17.9931 5.39641 17.9865C5.90694 17.9833 6.42075 17.9975 6.92581 17.9384C9.92886 17.5897 11.4451 14.8982 10.1497 12.2319C9.53859 10.9758 8.43991 10.3395 7.1368 10.1154C5.48496 9.8312 3.81563 9.95801 2.07196 10.0313C2.07087 12.702 2.07087 15.2338 2.07087 17.9887Z" fill="white"/>
<path d="M39.0012 34.0636C38.2622 34.0636 37.6642 34.0636 37.0017 34.0636C36.4627 33.2372 35.9839 32.3506 34.8667 32.0401C33.1033 31.5503 31.2667 32.1822 30.6491 33.6187C29.9166 35.3241 30.6152 37.1203 32.4026 37.9828C33.416 38.4726 34.4775 38.8617 35.504 39.3253C36.0626 39.5767 36.6224 39.8456 37.1329 40.1812C39.2996 41.6112 40.1556 43.6095 39.656 45.9818C39.1652 48.3158 37.3526 50.0824 34.9814 50.5361C31.6144 51.1811 28.596 49.3259 27.7969 46.0485C28.15 46.0135 28.49 45.9687 28.8311 45.9512C29.1339 45.9348 29.4378 45.9479 29.7745 45.9479C29.898 46.1611 29.9942 46.3349 30.0981 46.5033C31.3542 48.5268 33.6991 49.174 35.8287 48.0873C38.0566 46.9493 38.4469 43.8839 36.5043 42.2911C35.8451 41.7511 35.0175 41.4013 34.2337 41.0329C33.2618 40.5759 32.2397 40.2272 31.2689 39.768C28.3085 38.3654 27.6919 35.6324 28.6857 33.0623C29.7002 30.4407 32.7775 29.1759 35.4679 30.1161C37.31 30.7589 38.3507 31.8838 39.0012 34.0636Z" fill="white"/>
<path d="M19.4237 41.3108C19.4237 43.6426 19.4237 45.876 19.4237 48.186C20.6273 48.5369 21.8506 48.3259 23.0531 48.3609C24.2721 48.397 25.4943 48.3685 26.8083 48.3685C26.8083 49.0321 26.8083 49.5634 26.8083 50.1866C23.6719 50.1866 20.5792 50.1866 17.4023 50.1866C17.4023 43.5639 17.4023 37.0265 17.4023 30.4957C18.5371 30.2224 24.7476 30.1622 26.8193 30.4115C26.8477 30.676 26.898 30.9657 26.9034 31.2554C26.9078 31.5036 26.8619 31.7528 26.8247 32.1333C25.5905 32.3169 24.3727 32.2054 23.1636 32.224C21.9457 32.2426 20.7268 32.2284 19.4226 32.2284C19.4226 34.6772 19.4226 36.9664 19.4226 39.4009C21.2002 39.4009 22.9701 39.4009 24.8963 39.4009C24.9433 40.0088 24.9794 40.4832 25.0242 41.0725C23.1362 41.4332 21.2953 41.079 19.4237 41.3108Z" fill="white"/>
<path d="M61.8682 26.0056C61.8682 26.7949 61.8682 27.3349 61.8682 27.9537C59.0281 27.9537 56.2819 27.9537 53.5467 27.9537C53.2176 26.7522 53.0908 12.5635 53.3674 8.22997C53.6276 8.17968 53.9096 8.10097 54.1972 8.07692C54.4475 8.05615 54.7033 8.09769 55.1461 8.12283C55.2401 9.58992 55.1789 11.0581 55.1898 12.5219C55.2007 14.0076 55.192 15.4943 55.192 16.98C55.192 18.4657 55.192 19.9525 55.192 21.4381C55.192 22.9107 55.192 24.3843 55.192 26.0045C57.4855 26.0056 59.6151 26.0056 61.8682 26.0056Z" fill="white"/>
<path d="M15.8751 52.5078C16.4633 52.5078 16.9585 52.5078 17.5936 52.5078C17.5936 58.4877 17.5936 64.4052 17.5936 70.4649C19.8861 70.6671 22.0714 70.4583 24.3267 70.6037C24.3541 71.1962 24.377 71.6893 24.3989 72.1637C23.2893 72.5004 18.4966 72.5912 15.9746 72.3452C15.6794 71.2924 15.5821 54.8276 15.8751 52.5078Z" fill="white"/>
<path d="M43.3392 30.3857C43.3392 37.039 43.3392 43.5425 43.3392 50.1597C42.7051 50.1597 42.1279 50.1597 41.46 50.1597C41.46 43.5808 41.46 37.0379 41.46 30.3857C42.0623 30.3857 42.6417 30.3857 43.3392 30.3857Z" fill="white"/>
<path d="M47.4922 8.00977C48.1295 8.00977 48.6204 8.00977 49.2052 8.00977C49.2052 14.6609 49.2052 21.2321 49.2052 27.9182C48.6357 27.9182 48.1099 27.9182 47.4922 27.9182C47.4922 21.289 47.4922 14.7133 47.4922 8.00977Z" fill="white"/>
<path d="M39.9981 61.9619C39.9981 62.3948 39.9981 62.5457 39.9981 62.7753C38.027 63.4082 35.8406 62.3347 33.8608 63.4979C33.5667 63.2388 33.2705 62.9786 32.8955 62.6485C33.7318 61.7553 33.5328 60.673 33.5405 59.629C33.5492 58.409 33.5427 57.189 33.5427 55.9066C33.8608 55.8815 34.0456 55.8673 34.414 55.8389C34.414 57.8569 34.414 59.8247 34.414 61.9619C36.3511 61.9619 38.1167 61.9619 39.9981 61.9619Z" fill="white"/>
</g>
</g>
<defs>
<clipPath id="clip0_517_859">
<rect width="80" height="64.9279" fill="white" transform="translate(0 8)"/>
</clipPath>
</defs>
</svg>
