<svg width="99" height="96" viewBox="0 0 99 96" fill="none" xmlns="http://www.w3.org/2000/svg">
<g clip-path="url(#clip0_1249_294)">
<path d="M52.2961 95.9772C52.2961 91.3951 52.2961 87.0498 52.2961 82.7C52.1622 82.6642 52.0283 82.6285 51.8944 82.5928C50.9482 84.9061 50.0511 87.2418 49.0424 89.5284C46.7304 94.7758 43.9899 96.2496 38.4421 94.6419C18.8125 88.9523 5.79315 76.4477 1.09331 56.3867C-2.07562 42.8639 1.82975 30.6004 10.368 19.8197C18.8974 9.04784 29.9975 2.50526 43.5258 0.107051C43.9096 0.0400624 44.3024 0.0221986 44.6907 0.00880085C45.2307 -0.00906287 45.7708 0.00433492 46.5519 0.00433492C46.5519 4.52832 46.5519 8.99872 46.5519 13.4691C46.717 13.5004 46.8821 13.5316 47.0428 13.5629C47.8998 11.2674 48.7166 8.95853 49.6226 6.68537C50.5554 4.34522 51.6445 1.92022 54.1796 1.06723C55.6971 0.55811 57.6119 0.508985 59.1651 0.933248C79.2767 6.43528 92.9432 18.8729 97.7814 39.376C101.263 54.1269 96.4916 67.2925 86.6322 78.5467C77.9823 88.4208 67.0919 94.3203 53.9966 95.9683C53.5458 96.0263 53.0816 95.9772 52.2961 95.9772ZM45.6771 0.8216C38.2814 1.17887 32.9255 4.44794 28.8192 10.0929C25.8735 14.139 24.1953 18.6898 22.7893 23.4237C19.6115 34.1151 20.3345 45.0432 20.7094 55.9446C20.9951 64.2378 22.1109 72.4105 25.5655 80.0829C28.056 85.6162 31.5909 90.2965 37.0808 93.1592C42.276 95.87 46.4447 94.2489 48.4934 88.8272C51.6311 80.534 54.7465 72.2318 57.7949 63.9029C58.0671 63.1571 58.0225 62.0272 57.6208 61.402C57.3932 61.0447 56.0497 61.1295 55.3535 61.3975C49.1807 63.7555 43.5882 62.7373 39.0134 58.0838C34.4831 53.4705 33.7333 47.8657 36.0899 41.8501C37.6521 37.8665 39.2187 33.8829 40.7496 29.8859C42.4144 25.5271 44.7621 21.2711 45.4851 16.756C46.3153 11.5934 45.6771 6.20305 45.6771 0.8216ZM53.4923 94.95C58.0627 94.4856 62.2983 93.4182 65.8779 90.2161C72.8004 84.0174 75.523 75.8314 76.9781 67.1005C78.7678 56.351 78.7054 45.5077 77.7725 34.6778C77.1745 27.7378 75.9828 20.9004 72.7558 14.6169C69.7966 8.84241 65.8333 4.05493 59.3838 1.94701C55.5811 0.70102 52.6398 1.80411 51.158 5.49743C47.5963 14.3802 44.2265 23.3388 40.8612 32.2975C40.6157 32.954 40.7496 34.1508 41.1959 34.5528C41.6289 34.9413 42.7179 34.7493 43.4722 34.593C45.2173 34.2402 46.9134 33.5033 48.6675 33.3604C58.8259 32.552 66.65 42.7567 63.307 52.5549C61.4726 57.9319 59.6248 63.358 57.1388 68.4447C53.0013 76.9255 52.7023 85.7725 53.4923 94.95Z" fill="#FFFCF6"/>
</g>
<defs>
<clipPath id="clip0_1249_294">
<rect width="98.9743" height="96" fill="white"/>
</clipPath>
</defs>
</svg>
