<svg width="16" height="16" viewBox="0 0 16 16" fill="none" xmlns="http://www.w3.org/2000/svg">
<path d="M11.1313 9.98752H10.5289L10.3154 9.78165C11.0626 8.9124 11.5125 7.78391 11.5125 6.5563C11.5125 3.81895 9.29365 1.6001 6.5563 1.6001C3.81895 1.6001 1.6001 3.81895 1.6001 6.5563C1.6001 9.29365 3.81895 11.5125 6.5563 11.5125C7.78391 11.5125 8.9124 11.0626 9.78165 10.3154L9.98752 10.5289V11.1313L13.8 14.9361L14.9361 13.8L11.1313 9.98752ZM6.5563 9.98752C4.65769 9.98752 3.12508 8.45491 3.12508 6.5563C3.12508 4.65769 4.65769 3.12508 6.5563 3.12508C8.45491 3.12508 9.98752 4.65769 9.98752 6.5563C9.98752 8.45491 8.45491 9.98752 6.5563 9.98752Z" fill="#BA442E"/>
</svg>
