<svg width="16" height="16" viewBox="0 0 16 16" fill="none" xmlns="http://www.w3.org/2000/svg">
<path d="M11.9998 3.99992H10.6665C10.6665 2.52659 9.47317 1.33325 7.99984 1.33325C6.5265 1.33325 5.33317 2.52659 5.33317 3.99992H3.99984C3.2665 3.99992 2.6665 4.59992 2.6665 5.33325V13.3333C2.6665 14.0666 3.2665 14.6666 3.99984 14.6666H11.9998C12.7332 14.6666 13.3332 14.0666 13.3332 13.3333V5.33325C13.3332 4.59992 12.7332 3.99992 11.9998 3.99992ZM6.6665 6.66659C6.6665 7.03325 6.3665 7.33325 5.99984 7.33325C5.63317 7.33325 5.33317 7.03325 5.33317 6.66659V5.33325H6.6665V6.66659ZM7.99984 2.66659C8.73317 2.66659 9.33317 3.26659 9.33317 3.99992H6.6665C6.6665 3.26659 7.2665 2.66659 7.99984 2.66659ZM10.6665 6.66659C10.6665 7.03325 10.3665 7.33325 9.99984 7.33325C9.63317 7.33325 9.33317 7.03325 9.33317 6.66659V5.33325H10.6665V6.66659Z" fill="#BA442E"/>
</svg>
