<svg width="60" height="36" viewBox="0 0 60 36" fill="none" xmlns="http://www.w3.org/2000/svg">
<g clip-path="url(#clip0_239_64)">
<path d="M59.5151 0H0V1.82715H59.5151V0Z" fill="#CF1F25"/>
<path d="M60 22.0438C60 25.8257 56.2028 29.2912 49.3127 31.8023C42.7441 34.1959 34.0268 35.5127 24.7686 35.5127C15.3725 35.5127 6.63487 34.1755 0.0458984 31.7359V29.5872C6.38989 32.0728 15.4032 33.5018 24.7686 33.5018C33.7972 33.5018 42.2694 32.2259 48.6288 29.9139C54.5798 27.7448 57.9942 24.8815 57.9942 22.0438C57.9942 19.2061 54.5798 16.3429 48.6288 14.1738C42.2694 11.8567 33.7972 10.5859 24.7686 10.5859C15.4032 10.5859 6.395 12.0149 0.0458984 14.5005V12.3518C6.63487 9.91727 15.3725 8.58008 24.7686 8.58008C34.0268 8.58008 42.7441 9.89685 49.3127 12.2905C56.2079 14.7965 60 18.2619 60 22.0438Z" fill="#CF1F25"/>
<path d="M24.8555 18.665H30.9188V19.941H26.6214V21.3292H30.6993V22.549H26.6214V24.0904H30.9545V25.3663H24.8555V18.665Z" fill="#CF1F25"/>
<path d="M37.1965 18.665H41.2387C43.4639 18.665 44.4286 19.9971 44.4286 22.0182C44.4286 24.0393 43.4282 25.3714 41.3918 25.3714H37.1914V18.665H37.1965ZM38.9573 24.0955H40.9223C42.0961 24.0955 42.6116 23.3809 42.6116 21.9519C42.6116 20.7117 42.1012 19.941 40.7589 19.941H38.9573V24.0955Z" fill="#CF1F25"/>
<path d="M16.5923 25.4987L16.6433 25.3302C16.6484 25.32 17.0159 24.1206 16.7863 23.4623C16.628 23.0335 16.332 22.8498 15.7808 22.8498H13.5249V25.4987H11.8662V18.5371H16.2197C17.8019 18.5371 18.6032 19.1955 18.6032 20.4868C18.6032 21.2217 18.2766 21.8035 17.71 22.0995C17.7866 22.1353 17.858 22.1812 17.9244 22.2322L17.9295 22.2271L18.0163 22.3088C19.0268 23.2734 18.3735 25.32 18.348 25.4068L18.3174 25.4987H16.5923ZM15.8216 21.5432C16.5974 21.5432 16.8883 21.3085 16.8883 20.6858C16.8883 20.104 16.5617 19.8488 15.8216 19.8488H13.53V21.5432H15.8216Z" fill="#CF1F25"/>
</g>
<defs>
<clipPath id="clip0_239_64">
<rect width="59.9999" height="36" fill="white"/>
</clipPath>
</defs>
</svg>
